<svg xmlns="http://www.w3.org/2000/svg" viewBox="0 0 2400 1000" width="2400" height="1000" role="img" aria-label="Architectural night study of a city skyline">
  <defs>
    <radialGradient id="ag" cx="30%" cy="88%" r="72%">
      <stop offset="0%" stop-color="#34d399" stop-opacity="0.20"/>
      <stop offset="100%" stop-color="#34d399" stop-opacity="0"/>
    </radialGradient>
    <linearGradient id="af" x1="0" y1="0" x2="0" y2="1">
      <stop offset="0%" stop-color="#0a0a0a" stop-opacity="0"/>
      <stop offset="100%" stop-color="#0a0a0a" stop-opacity="0.65"/>
    </linearGradient>
  </defs>
  <rect width="2400" height="1000" fill="#0a0a0a"/>
  <rect width="2400" height="1000" fill="url(#ag)"/>
  <rect x="-60" y="595" width="175" height="405" fill="#ffffff" opacity="0.122"/><line x1="-60" y1="595" x2="115" y2="595" stroke="#34d399" stroke-width="1" opacity="0.38"/><rect x="135" y="489" width="113" height="511" fill="#ffffff" opacity="0.168"/><line x1="135" y1="489" x2="248" y2="489" stroke="#34d399" stroke-width="1" opacity="0.38"/><rect x="282" y="717" width="191" height="283" fill="#ffffff" opacity="0.103"/><line x1="282" y1="717" x2="473" y2="717" stroke="#34d399" stroke-width="1" opacity="0.38"/><rect x="505" y="691" width="236" height="309" fill="#ffffff" opacity="0.161"/><line x1="505" y1="691" x2="741" y2="691" stroke="#34d399" stroke-width="1" opacity="0.38"/><rect x="769" y="336" width="129" height="664" fill="#ffffff" opacity="0.145"/><line x1="769" y1="336" x2="898" y2="336" stroke="#34d399" stroke-width="1" opacity="0.38"/><rect x="911" y="521" width="192" height="479" fill="#ffffff" opacity="0.175"/><line x1="911" y1="521" x2="1102" y2="521" stroke="#34d399" stroke-width="1" opacity="0.38"/><rect x="1121" y="281" width="229" height="719" fill="#ffffff" opacity="0.148"/><line x1="1121" y1="281" x2="1350" y2="281" stroke="#34d399" stroke-width="1" opacity="0.38"/><rect x="1380" y="303" width="239" height="697" fill="#ffffff" opacity="0.174"/><line x1="1380" y1="303" x2="1619" y2="303" stroke="#34d399" stroke-width="1" opacity="0.38"/><rect x="1655" y="386" width="94" height="614" fill="#ffffff" opacity="0.163"/><line x1="1655" y1="386" x2="1750" y2="386" stroke="#34d399" stroke-width="1" opacity="0.38"/><rect x="1778" y="376" width="124" height="624" fill="#ffffff" opacity="0.134"/><line x1="1778" y1="376" x2="1902" y2="376" stroke="#34d399" stroke-width="1" opacity="0.38"/><rect x="1927" y="400" width="195" height="600" fill="#ffffff" opacity="0.186"/><line x1="1927" y1="400" x2="2122" y2="400" stroke="#34d399" stroke-width="1" opacity="0.38"/><rect x="2156" y="593" width="140" height="407" fill="#ffffff" opacity="0.135"/><line x1="2156" y1="593" x2="2296" y2="593" stroke="#34d399" stroke-width="1" opacity="0.38"/><rect x="2326" y="404" width="94" height="596" fill="#ffffff" opacity="0.142"/><line x1="2326" y1="404" x2="2420" y2="404" stroke="#34d399" stroke-width="1" opacity="0.38"/><rect x="2434" y="272" width="197" height="728" fill="#ffffff" opacity="0.125"/><line x1="2434" y1="272" x2="2631" y2="272" stroke="#34d399" stroke-width="1" opacity="0.38"/>
  <rect x="40" y="621" width="44" height="2.4" fill="#34d399" opacity="0.62"/><rect x="-3" y="643" width="80" height="2.4" fill="#34d399" opacity="0.80"/><rect x="11" y="665" width="65" height="2.4" fill="#34d399" opacity="0.51"/><rect x="-46" y="687" width="74" height="2.4" fill="#34d399" opacity="0.83"/><rect x="24" y="709" width="60" height="2.4" fill="#34d399" opacity="0.50"/><rect x="-25" y="731" width="71" height="2.4" fill="#34d399" opacity="0.75"/><rect x="-29" y="819" width="40" height="2.4" fill="#34d399" opacity="0.83"/><rect x="33" y="841" width="64" height="2.4" fill="#34d399" opacity="0.43"/><rect x="-37" y="885" width="39" height="2.4" fill="#34d399" opacity="0.34"/><rect x="-34" y="929" width="79" height="2.4" fill="#34d399" opacity="0.65"/><rect x="-35" y="951" width="80" height="2.4" fill="#34d399" opacity="0.62"/><rect x="197" y="515" width="22" height="2.4" fill="#34d399" opacity="0.84"/><rect x="160" y="559" width="45" height="2.4" fill="#34d399" opacity="0.37"/><rect x="198" y="581" width="41" height="2.4" fill="#34d399" opacity="0.45"/><rect x="156" y="625" width="28" height="2.4" fill="#34d399" opacity="0.36"/><rect x="177" y="713" width="30" height="2.4" fill="#34d399" opacity="0.45"/><rect x="183" y="735" width="46" height="2.4" fill="#34d399" opacity="0.70"/><rect x="159" y="867" width="36" height="2.4" fill="#34d399" opacity="0.66"/><rect x="158" y="955" width="20" height="2.4" fill="#34d399" opacity="0.48"/><rect x="188" y="977" width="23" height="2.4" fill="#34d399" opacity="0.60"/><rect x="311" y="743" width="56" height="2.4" fill="#34d399" opacity="0.47"/><rect x="389" y="765" width="67" height="2.4" fill="#34d399" opacity="0.73"/><rect x="375" y="809" width="45" height="2.4" fill="#34d399" opacity="0.54"/><rect x="378" y="897" width="49" height="2.4" fill="#34d399" opacity="0.40"/><rect x="348" y="941" width="58" height="2.4" fill="#34d399" opacity="0.71"/><rect x="330" y="963" width="57" height="2.4" fill="#34d399" opacity="0.83"/><rect x="631" y="739" width="95" height="2.4" fill="#34d399" opacity="0.35"/><rect x="518" y="783" width="55" height="2.4" fill="#34d399" opacity="0.64"/><rect x="575" y="805" width="83" height="2.4" fill="#34d399" opacity="0.57"/><rect x="598" y="827" width="69" height="2.4" fill="#34d399" opacity="0.42"/><rect x="538" y="849" width="94" height="2.4" fill="#34d399" opacity="0.69"/><rect x="591" y="871" width="78" height="2.4" fill="#34d399" opacity="0.57"/><rect x="527" y="893" width="107" height="2.4" fill="#34d399" opacity="0.41"/><rect x="598" y="915" width="97" height="2.4" fill="#34d399" opacity="0.64"/><rect x="522" y="937" width="84" height="2.4" fill="#34d399" opacity="0.60"/><rect x="823" y="362" width="57" height="2.4" fill="#34d399" opacity="0.51"/><rect x="805" y="384" width="49" height="2.4" fill="#34d399" opacity="0.47"/><rect x="814" y="428" width="26" height="2.4" fill="#34d399" opacity="0.70"/><rect x="795" y="494" width="27" height="2.4" fill="#34d399" opacity="0.40"/><rect x="814" y="516" width="43" height="2.4" fill="#34d399" opacity="0.73"/><rect x="826" y="538" width="37" height="2.4" fill="#34d399" opacity="0.63"/><rect x="784" y="560" width="23" height="2.4" fill="#34d399" opacity="0.48"/><rect x="811" y="626" width="50" height="2.4" fill="#34d399" opacity="0.55"/><rect x="838" y="714" width="27" height="2.4" fill="#34d399" opacity="0.81"/><rect x="856" y="758" width="34" height="2.4" fill="#34d399" opacity="0.68"/><rect x="808" y="780" width="24" height="2.4" fill="#34d399" opacity="0.64"/><rect x="820" y="824" width="27" height="2.4" fill="#34d399" opacity="0.73"/><rect x="830" y="846" width="40" height="2.4" fill="#34d399" opacity="0.41"/><rect x="948" y="569" width="80" height="2.4" fill="#34d399" opacity="0.80"/><rect x="956" y="591" width="71" height="2.4" fill="#34d399" opacity="0.61"/><rect x="1000" y="635" width="75" height="2.4" fill="#34d399" opacity="0.54"/><rect x="1026" y="657" width="59" height="2.4" fill="#34d399" opacity="0.54"/><rect x="996" y="723" width="77" height="2.4" fill="#34d399" opacity="0.67"/><rect x="1010" y="745" width="75" height="2.4" fill="#34d399" opacity="0.65"/><rect x="927" y="767" width="59" height="2.4" fill="#34d399" opacity="0.81"/><rect x="936" y="811" width="73" height="2.4" fill="#34d399" opacity="0.74"/><rect x="1003" y="833" width="39" height="2.4" fill="#34d399" opacity="0.64"/><rect x="1008" y="855" width="71" height="2.4" fill="#34d399" opacity="0.60"/><rect x="951" y="877" width="63" height="2.4" fill="#34d399" opacity="0.68"/><rect x="969" y="965" width="77" height="2.4" fill="#34d399" opacity="0.77"/><rect x="1163" y="307" width="61" height="2.4" fill="#34d399" opacity="0.69"/><rect x="1231" y="351" width="105" height="2.4" fill="#34d399" opacity="0.69"/><rect x="1157" y="373" width="84" height="2.4" fill="#34d399" opacity="0.62"/><rect x="1230" y="395" width="82" height="2.4" fill="#34d399" opacity="0.54"/><rect x="1198" y="417" width="84" height="2.4" fill="#34d399" opacity="0.62"/><rect x="1146" y="439" width="98" height="2.4" fill="#34d399" opacity="0.64"/><rect x="1240" y="527" width="73" height="2.4" fill="#34d399" opacity="0.35"/><rect x="1247" y="615" width="78" height="2.4" fill="#34d399" opacity="0.80"/><rect x="1212" y="637" width="95" height="2.4" fill="#34d399" opacity="0.52"/><rect x="1224" y="659" width="102" height="2.4" fill="#34d399" opacity="0.48"/><rect x="1149" y="681" width="65" height="2.4" fill="#34d399" opacity="0.78"/><rect x="1269" y="703" width="48" height="2.4" fill="#34d399" opacity="0.55"/><rect x="1265" y="725" width="76" height="2.4" fill="#34d399" opacity="0.82"/><rect x="1205" y="747" width="67" height="2.4" fill="#34d399" opacity="0.41"/><rect x="1202" y="769" width="46" height="2.4" fill="#34d399" opacity="0.76"/><rect x="1179" y="813" width="91" height="2.4" fill="#34d399" opacity="0.68"/><rect x="1176" y="835" width="90" height="2.4" fill="#34d399" opacity="0.76"/><rect x="1220" y="879" width="83" height="2.4" fill="#34d399" opacity="0.80"/><rect x="1246" y="923" width="92" height="2.4" fill="#34d399" opacity="0.82"/><rect x="1175" y="945" width="38" height="2.4" fill="#34d399" opacity="0.34"/><rect x="1464" y="395" width="99" height="2.4" fill="#34d399" opacity="0.51"/><rect x="1532" y="417" width="43" height="2.4" fill="#34d399" opacity="0.80"/><rect x="1445" y="439" width="90" height="2.4" fill="#34d399" opacity="0.43"/><rect x="1463" y="461" width="92" height="2.4" fill="#34d399" opacity="0.76"/><rect x="1445" y="483" width="39" height="2.4" fill="#34d399" opacity="0.68"/><rect x="1525" y="505" width="45" height="2.4" fill="#34d399" opacity="0.81"/><rect x="1492" y="527" width="90" height="2.4" fill="#34d399" opacity="0.46"/><rect x="1398" y="571" width="109" height="2.4" fill="#34d399" opacity="0.76"/><rect x="1463" y="615" width="57" height="2.4" fill="#34d399" opacity="0.49"/><rect x="1457" y="637" width="73" height="2.4" fill="#34d399" opacity="0.61"/><rect x="1466" y="659" width="44" height="2.4" fill="#34d399" opacity="0.74"/><rect x="1470" y="791" width="83" height="2.4" fill="#34d399" opacity="0.64"/><rect x="1395" y="813" width="73" height="2.4" fill="#34d399" opacity="0.73"/><rect x="1465" y="835" width="110" height="2.4" fill="#34d399" opacity="0.74"/><rect x="1422" y="901" width="103" height="2.4" fill="#34d399" opacity="0.70"/><rect x="1446" y="945" width="57" height="2.4" fill="#34d399" opacity="0.73"/><rect x="1671" y="412" width="41" height="2.4" fill="#34d399" opacity="0.82"/><rect x="1706" y="434" width="27" height="2.4" fill="#34d399" opacity="0.64"/><rect x="1712" y="478" width="20" height="2.4" fill="#34d399" opacity="0.38"/><rect x="1713" y="566" width="21" height="2.4" fill="#34d399" opacity="0.53"/><rect x="1693" y="610" width="19" height="2.4" fill="#34d399" opacity="0.60"/><rect x="1679" y="720" width="38" height="2.4" fill="#34d399" opacity="0.47"/><rect x="1674" y="742" width="29" height="2.4" fill="#34d399" opacity="0.75"/><rect x="1697" y="764" width="42" height="2.4" fill="#34d399" opacity="0.55"/><rect x="1671" y="808" width="32" height="2.4" fill="#34d399" opacity="0.68"/><rect x="1702" y="830" width="24" height="2.4" fill="#34d399" opacity="0.39"/><rect x="1671" y="874" width="22" height="2.4" fill="#34d399" opacity="0.81"/><rect x="1713" y="940" width="26" height="2.4" fill="#34d399" opacity="0.69"/><rect x="1794" y="402" width="39" height="2.4" fill="#34d399" opacity="0.60"/><rect x="1833" y="424" width="22" height="2.4" fill="#34d399" opacity="0.44"/><rect x="1791" y="468" width="38" height="2.4" fill="#34d399" opacity="0.60"/><rect x="1817" y="534" width="29" height="2.4" fill="#34d399" opacity="0.60"/><rect x="1792" y="578" width="21" height="2.4" fill="#34d399" opacity="0.42"/><rect x="1798" y="600" width="33" height="2.4" fill="#34d399" opacity="0.75"/><rect x="1796" y="644" width="49" height="2.4" fill="#34d399" opacity="0.75"/><rect x="1838" y="666" width="32" height="2.4" fill="#34d399" opacity="0.76"/><rect x="1844" y="688" width="43" height="2.4" fill="#34d399" opacity="0.63"/><rect x="1856" y="754" width="37" height="2.4" fill="#34d399" opacity="0.50"/><rect x="1813" y="798" width="54" height="2.4" fill="#34d399" opacity="0.36"/><rect x="1861" y="842" width="26" height="2.4" fill="#34d399" opacity="0.62"/><rect x="1840" y="864" width="39" height="2.4" fill="#34d399" opacity="0.70"/><rect x="1842" y="886" width="51" height="2.4" fill="#34d399" opacity="0.63"/><rect x="1828" y="908" width="25" height="2.4" fill="#34d399" opacity="0.54"/><rect x="1791" y="930" width="25" height="2.4" fill="#34d399" opacity="0.41"/><rect x="1805" y="952" width="35" height="2.4" fill="#34d399" opacity="0.39"/><rect x="1957" y="426" width="65" height="2.4" fill="#34d399" opacity="0.55"/><rect x="1973" y="448" width="72" height="2.4" fill="#34d399" opacity="0.70"/><rect x="1968" y="558" width="68" height="2.4" fill="#34d399" opacity="0.57"/><rect x="2030" y="602" width="56" height="2.4" fill="#34d399" opacity="0.81"/><rect x="1966" y="624" width="68" height="2.4" fill="#34d399" opacity="0.49"/><rect x="2014" y="646" width="70" height="2.4" fill="#34d399" opacity="0.67"/><rect x="1956" y="668" width="44" height="2.4" fill="#34d399" opacity="0.60"/><rect x="2034" y="756" width="61" height="2.4" fill="#34d399" opacity="0.72"/><rect x="1997" y="778" width="43" height="2.4" fill="#34d399" opacity="0.75"/><rect x="1978" y="800" width="72" height="2.4" fill="#34d399" opacity="0.56"/><rect x="2017" y="822" width="50" height="2.4" fill="#34d399" opacity="0.46"/><rect x="1979" y="866" width="87" height="2.4" fill="#34d399" opacity="0.49"/><rect x="1986" y="932" width="36" height="2.4" fill="#34d399" opacity="0.74"/><rect x="2026" y="954" width="71" height="2.4" fill="#34d399" opacity="0.58"/><rect x="1998" y="976" width="49" height="2.4" fill="#34d399" opacity="0.38"/><rect x="2220" y="663" width="46" height="2.4" fill="#34d399" opacity="0.51"/><rect x="2189" y="685" width="39" height="2.4" fill="#34d399" opacity="0.54"/><rect x="2242" y="795" width="39" height="2.4" fill="#34d399" opacity="0.66"/><rect x="2208" y="839" width="51" height="2.4" fill="#34d399" opacity="0.73"/><rect x="2191" y="861" width="30" height="2.4" fill="#34d399" opacity="0.73"/><rect x="2250" y="905" width="30" height="2.4" fill="#34d399" opacity="0.72"/><rect x="2345" y="430" width="26" height="2.4" fill="#34d399" opacity="0.57"/><rect x="2344" y="452" width="17" height="2.4" fill="#34d399" opacity="0.47"/><rect x="2358" y="474" width="40" height="2.4" fill="#34d399" opacity="0.56"/><rect x="2341" y="518" width="33" height="2.4" fill="#34d399" opacity="0.46"/><rect x="2363" y="540" width="38" height="2.4" fill="#34d399" opacity="0.73"/><rect x="2356" y="562" width="33" height="2.4" fill="#34d399" opacity="0.68"/><rect x="2379" y="606" width="28" height="2.4" fill="#34d399" opacity="0.34"/><rect x="2387" y="628" width="22" height="2.4" fill="#34d399" opacity="0.63"/><rect x="2385" y="716" width="15" height="2.4" fill="#34d399" opacity="0.48"/><rect x="2366" y="738" width="34" height="2.4" fill="#34d399" opacity="0.42"/><rect x="2353" y="760" width="23" height="2.4" fill="#34d399" opacity="0.57"/><rect x="2351" y="804" width="33" height="2.4" fill="#34d399" opacity="0.54"/><rect x="2345" y="826" width="35" height="2.4" fill="#34d399" opacity="0.67"/><rect x="2357" y="848" width="35" height="2.4" fill="#34d399" opacity="0.37"/><rect x="2346" y="870" width="17" height="2.4" fill="#34d399" opacity="0.38"/><rect x="2380" y="892" width="23" height="2.4" fill="#34d399" opacity="0.70"/><rect x="2345" y="936" width="43" height="2.4" fill="#34d399" opacity="0.41"/><rect x="2362" y="958" width="30" height="2.4" fill="#34d399" opacity="0.76"/><rect x="2364" y="980" width="22" height="2.4" fill="#34d399" opacity="0.43"/><rect x="2554" y="408" width="60" height="2.4" fill="#34d399" opacity="0.57"/><rect x="2451" y="430" width="60" height="2.4" fill="#34d399" opacity="0.67"/><rect x="2454" y="474" width="54" height="2.4" fill="#34d399" opacity="0.56"/><rect x="2507" y="496" width="72" height="2.4" fill="#34d399" opacity="0.56"/><rect x="2470" y="540" width="84" height="2.4" fill="#34d399" opacity="0.49"/><rect x="2458" y="584" width="36" height="2.4" fill="#34d399" opacity="0.63"/><rect x="2505" y="606" width="74" height="2.4" fill="#34d399" opacity="0.59"/><rect x="2501" y="628" width="44" height="2.4" fill="#34d399" opacity="0.55"/><rect x="2520" y="650" width="79" height="2.4" fill="#34d399" opacity="0.46"/><rect x="2582" y="672" width="41" height="2.4" fill="#34d399" opacity="0.72"/><rect x="2503" y="694" width="86" height="2.4" fill="#34d399" opacity="0.57"/><rect x="2471" y="716" width="47" height="2.4" fill="#34d399" opacity="0.44"/><rect x="2451" y="760" width="71" height="2.4" fill="#34d399" opacity="0.75"/><rect x="2487" y="782" width="34" height="2.4" fill="#34d399" opacity="0.60"/><rect x="2549" y="914" width="48" height="2.4" fill="#34d399" opacity="0.34"/><rect x="2482" y="958" width="54" height="2.4" fill="#34d399" opacity="0.74"/>
  <rect y="720" width="2400" height="280" fill="#0a0a0a" opacity="0.40"/>
  <line x1="235" y1="740" x2="2440" y2="746" stroke="#34d399" stroke-width="1.2" opacity="0.100"/><line x1="249" y1="756" x2="2440" y2="762" stroke="#34d399" stroke-width="0.8" opacity="0.140"/><line x1="119" y1="772" x2="2440" y2="778" stroke="#34d399" stroke-width="1.3" opacity="0.180"/><line x1="194" y1="788" x2="2440" y2="794" stroke="#34d399" stroke-width="1.3" opacity="0.220"/><line x1="8" y1="804" x2="2440" y2="810" stroke="#34d399" stroke-width="0.8" opacity="0.100"/><line x1="-7" y1="820" x2="2440" y2="826" stroke="#34d399" stroke-width="1.2" opacity="0.140"/><line x1="128" y1="836" x2="2440" y2="842" stroke="#34d399" stroke-width="0.7" opacity="0.180"/><line x1="88" y1="852" x2="2440" y2="858" stroke="#34d399" stroke-width="1.1" opacity="0.220"/><line x1="42" y1="868" x2="2440" y2="874" stroke="#34d399" stroke-width="1.6" opacity="0.100"/><line x1="-31" y1="884" x2="2440" y2="890" stroke="#34d399" stroke-width="1.1" opacity="0.140"/><line x1="163" y1="900" x2="2440" y2="906" stroke="#34d399" stroke-width="1.5" opacity="0.180"/><line x1="97" y1="916" x2="2440" y2="922" stroke="#34d399" stroke-width="1.5" opacity="0.220"/><line x1="169" y1="932" x2="2440" y2="938" stroke="#34d399" stroke-width="1.5" opacity="0.100"/><line x1="79" y1="948" x2="2440" y2="954" stroke="#34d399" stroke-width="1.3" opacity="0.140"/><line x1="43" y1="964" x2="2440" y2="970" stroke="#34d399" stroke-width="0.9" opacity="0.180"/><line x1="252" y1="980" x2="2440" y2="986" stroke="#34d399" stroke-width="0.7" opacity="0.220"/>
  <rect width="2400" height="1000" fill="url(#af)"/>
</svg>
